<?xml version="1.0" encoding="utf-8"?>
<svg width="512" height="512" viewBox="0 0 512 512" fill="none" stroke="none" version="1.1" xmlns:xlink="http://www.w3.org/1999/xlink" xmlns="http://www.w3.org/2000/svg">
  <defs>
    <rect id="rect_1" x="0" y="0" width="197" height="311" />
    <clipPath id="clip_path_2">
      <use xlink:href="#rect_1" />
    </clipPath>
  </defs>
  <g id="SingleElement">
    <path id="Oval" d="M0 256C0 114.615 114.615 0 256 0C397.385 0 512 114.615 512 256C512 397.385 397.385 512 256 512C114.615 512 0 397.385 0 256Z" style="fill:#8D5858;fill-rule:evenodd;mix-blend-mode:normal;" />
    <path id="Oval" d="M0 200C0 89.543 89.543 0 200 0C310.457 0 400 89.543 400 200C400 310.457 310.457 400 200 400C89.543 400 0 310.457 0 200Z" style="fill:#201C50;fill-rule:evenodd;mix-blend-mode:normal;" transform="translate(55 56)" />
    <g clip-path="url(#clip_path_2)" style="mix-blend-mode:normal;" transform="translate(158 101)">
      <path d="M134.489 127.125Q133.057 113.727 122.523 106.261Q111.989 98.7954 95.0114 98.7954Q77.2159 98.7954 67.1932 106.517Q57.1705 114.239 57.0682 126.102Q56.9659 134.795 62.2841 140.472Q67.6023 146.148 75.8352 149.523Q84.0682 152.898 92.6591 154.943L112.295 159.852Q128.045 163.534 142.108 170.744Q156.17 177.955 165.017 189.972Q173.864 201.989 173.864 220.193Q173.761 247.909 152.898 265.04Q132.034 282.17 94.3977 282.17Q57.7841 282.17 36 265.244Q14.2159 248.318 13.0909 217.125L50.4205 217.125Q51.5455 233.591 63.9205 241.67Q76.2955 249.75 94.0909 249.75Q112.705 249.75 124.261 241.517Q135.818 233.284 135.92 219.886Q135.818 207.716 125.54 201.426Q115.261 195.136 98.2841 190.841L74.4546 184.705Q48.5795 178.057 33.5966 164.506Q18.6136 150.955 18.6136 128.455Q18.6136 109.943 28.6364 96.0341Q38.6591 82.125 56.0966 74.4034Q73.5341 66.6818 95.5227 66.6818Q117.818 66.6818 134.693 74.4034Q151.568 82.125 161.131 95.7784Q170.693 109.432 171 127.125L134.489 127.125Z" style="fill:#FC4850;" />
    </g>
  </g>
</svg>